<?xml version="1.0" encoding="UTF-8"?>
<svg xmlns="http://www.w3.org/2000/svg" version="1.1" viewBox="0 0 607 662">
  <defs>
    <style>
      .cls-1 {
        fill: #00d1fe;
      }

      .cls-1, .cls-2, .cls-3, .cls-4 {
        stroke-width: 0px;
      }

      .cls-2 {
        fill: #01d1fe;
      }

      .cls-3 {
        fill: #85e1f4;
      }

      .cls-4 {
        fill: #fefefe;
      }

      .cls-5 {
        fill: #00d2ff;
        font-family: HelveticaNeueLTPro-BdEx, 'Helvetica Neue LT Pro';
        font-size: 69.98px;
      }
    </style>
  </defs>
  <g id="Layer_1_Image" data-name="Layer 1 Image">
    <g>
      <path class="cls-4" d="M.11,267.01C.11,179.37.13,91.73.01,4.09,0,.67.68,0,4.11,0c85.64.12,171.28.1,256.91.1-.32,2.74-2.59,2.11-4.2,2.25-31.45,2.64-61.19,11.4-89.28,25.54-48.85,24.59-86.39,61.1-113.29,108.68-10.32,18.25-17.95,37.53-22.87,57.89-1.31,5.43-1.14,5.55,4.24,4.35,22.72-5.07,45.75-6.85,68.96-5.99,7,.26,13.05-1.4,18.8-5.29,2.92-1.97,4.48-4.06,4.42-7.68-.15-8.99-.01-17.99-.07-26.98-.03-4.75-.4-4.94-4.86-2.75-17.2,8.42-34.5,16.62-51.6,25.24-1.94.98-4.3,3.21-6.29,1.1-1.79-1.89-.1-4.45.81-6.54,11.12-25.77,26.15-48.91,45.36-69.49,26.45-28.33,57.9-48.91,94.25-61.88,19.99-7.13,40.76-10.69,62.05-11.99,24.56-1.5,48.45,1.72,72.16,7.39,2.65.63,6.67.72,7.07,3.66.44,3.19-3.63,3.82-6.03,5.05-6.67,3.42-13.07,7.33-19.87,10.52-2.17,1.02-4.2,2.39-4.29,5.07-.36,11.28-.14,22.55-.16,34.63,6.26-2.98,11.85-5.51,17.24-8.34,16.67-8.75,33.69-16.8,50.39-25.47,4.52-2.35,8.2-2.01,12.53.68,18.1,11.23,34.11,24.94,48.97,40.1,1.53,1.57,2.02,3.34,2.27,5.36,1.08,8.8.3,17.64.52,26.46.13,5,.2,5.08,4.62,2.98,1.96-.93,3.98-1.71,5.96-2.59,6.79-3,7.03-3.08,10.93,3.44,12.46,20.84,21.81,43.05,28.65,66.33,1.81,6.16,1.83,6.14,7.55,3.61,3.35-1.48,6.61-3.17,9.89-4.79,5.66-2.79,5.7-2.81,4.06-9.15-3.46-13.43-8.7-26.2-14.1-38.95-3.78-8.93-8.7-17.24-13.06-25.84-1.93-3.8-2.45-6.85,2.15-9.03,2.2-1.04,2.72-3.19,2.72-5.5.01-8.33.08-16.66-.03-24.99-.05-3.93-.92-4.49-4.58-2.6-4.73,2.44-9.52,4.76-14.24,7.23-2.78,1.45-5.06,1.16-7.27-.93-2.06-1.95-4.07-3.94-5.98-6.03-19.26-21.06-41.38-38.57-66.19-52.59-25.64-14.49-53.22-23.56-82.25-28.26-4.59-.74-9.22-1.33-13.87-1.67-1.61-.12-3.88.5-4.2-2.24C400.31.1,501.61.12,602.9,0c3.42,0,4.1.67,4.1,4.09-.13,67.31-.1,134.62-.1,201.93-2.84.02-1.73-3.24-3.68-4.29-2.91,6.01-6.43,11.52-11.88,15.67-6.09,4.62-12.86,6.54-20.41,7.02-8.65.55-17.18-1.51-25.87-.33-18.48,2.51-30.63,12.67-37.45,29.71-.87,2.16-1.41,4.45-2.42,6.56-.43.9-.92,1.84-2.06,1.95-1.46.15-2.07-.96-2.5-2.03-1.29-3.25-2.68-6.45-4.28-9.57-8.33-16.27-21.56-25.55-39.76-27.11-6.76-.58-13.59.62-20.4.86-15.44.54-25.87-6.94-33.6-19.41-.44-.7-.71-1.51-1.29-2.12-.09-.1-.27-.12-.71-.3-2.7,8.81-2.2,17.71-.87,26.54,4.63,30.67,26.66,54.78,56.7,62.31,3.23.81,6.45,1.68,9.69,2.42,13.13,3,20.46,11.75,23.96,24.21,3.46,12.35,2.71,24.77-.15,37.07-4.9,21.06-15.59,38.9-33.26,51.27-26.22,18.36-53.8,16.78-81.13,1.99-17.15-9.28-30.33-23.06-42.18-38.35-14.53-18.74-25.73-39.66-39.19-59.09-8.46-12.22-17.5-23.97-28.04-34.4-22.09-21.86-48.19-36.89-78.22-45.32-32.46-9.11-65.58-11.21-98.96-9.74-17.42.77-34.83,2.82-51.41,9.13-12.33,4.69-22.78,11.59-29.96,22.94-1.89,2.99-3.14,6.22-4.36,9.5-.58,1.55-.55,3.82-3.1,3.88Z"/>
      <path class="cls-1" d="M.11,267.01c3.18-7.72,6.2-15.42,12.11-21.74,10.71-11.46,24.51-16.89,39.2-20.09,26.95-5.87,54.25-6.04,81.7-4.32,21.61,1.36,42.66,5.19,63.21,11.72,41.23,13.11,72.36,39.38,96.68,74.57,11.9,17.21,22.17,35.46,34.21,52.55,13.4,19.02,28.52,36.37,49.25,47.86,37.41,20.73,81.45,11.46,103.49-30,7.78-14.64,11.89-30.12,10.89-46.68-.76-12.57-3.96-24.27-15.32-31.85-5.65-3.77-12.31-4.57-18.72-6.02-29.09-6.56-52.8-31.56-57.92-60.97-1.7-9.75-2.17-19.42.06-29.12.29-1.26.42-2.56,1.65-3.71,2.39,3.63,4,7.65,6.75,10.98,8.16,9.89,18.67,13.71,31.31,13.23,6.78-.26,13.46-1.75,20.37-.85,21.5,2.81,34.18,15.85,41.84,35.03.59,1.47,1.08,2.98,1.95,5.4,2.95-7.12,4.49-13.89,8.43-19.55,10.78-15.46,25.49-22.14,44.35-20.64,11.88.95,23.96,1.95,34.49-6.03,4.79-3.63,8.11-8.24,10.85-13.42.83-1.56,1.61-3.14,2.44-4.76,2.92,1.9,1.28,5.53,3.51,7.42v23.99c-1.14,14.74-6.92,27.56-16.27,38.85-11.47,13.87-26.23,22.31-43.72,26.14-2.93.64-5.86,1.25-8.81,1.77-2.77.49-3.96,1.97-3.91,4.8.2,11.82-.87,23.58-2,35.33-1.82,18.96-5.54,37.51-11.86,55.52-9.27,26.4-23.23,50.05-41.37,71.29-18,21.08-38.96,38.59-63.2,52.12-2.52,1.4-4.92,1.95-7.45.1-25.48-18.66-53.8-32.56-80.96-48.41-.43-.25-.86-.52-1.26-.8,12.29,18.31,26.47,31.21,46.92,47.23,14.83,11.62,30.66,21.79,47.73,29.93,11.75,5.6,23.77,10.41,36.63,12.91,2.17.42,5.49.26,5.72,2.99.25,2.99-3.16,3.45-5.38,4.32-13.41,5.21-27.42,6.58-41.68,6.28-4.99,0-9.97,0-14.94,0-31.53.55-59.23-10.82-85.08-27.65-29.05-18.91-51.78-44.18-71.75-72.16-14.08-19.72-25.14-41.19-36.1-62.69-11.07-21.73-23.37-42.64-39.24-61.24-26.6-31.16-59.1-52.48-100.23-58.84-17.64-2.73-35.16-2.47-52.04,4.51-4.19,1.73-7.95,4.17-11.71,6.63-1.46.96-2.67,2.66-4.82,2.04v-33.99Z"/>
      <path class="cls-4" d="M.11,300.99c18.09-14.63,39.04-17.56,61.4-15.28,44.83,4.55,79.79,26.79,108.51,60.24,18.74,21.84,32.27,46.95,45.05,72.52,18.48,37,41.25,70.95,71.58,99.38,26.15,24.52,56.01,42.46,91.6,49.59,7.13,1.43,14.35,2.74,21.7,2.51.35.2.47.4.37.62-.11.22-.22.33-.33.33-131.86,0-263.71-.02-395.57.09-3.47,0-4.41-.55-4.4-4.28.14-88.57.11-177.14.11-265.71Z"/>
      <path class="cls-4" d="M416.99,569.94c15.9-.4,31.3-3.02,45.89-10.05-28.88-5.65-54.1-19.01-77.76-35.49-23.72-16.52-45.74-34.97-61.17-60.25,7.44,4.21,14.87,8.45,22.33,12.64,19.68,11.03,39.88,21.28,57.94,34.89,5.94,4.48,9.87,4.03,15.81.36,44.08-27.21,76.68-64.14,96.18-112.28,8.44-20.83,12.94-42.62,14.76-65.02.94-11.6,2.04-23.19,1.9-34.84-.04-2.92,1.02-3.83,3.93-4.29,12.49-1.95,24.63-5.04,35.4-12.15,18.43-12.18,29.53-29.18,33.67-50.8.18-.96-.01-2.03,1.03-2.63,0,112.3-.02,224.59.1,336.89,0,3.42-.67,4.1-4.09,4.1-61.98-.13-123.96-.1-185.94-.1-.33-.22-.44-.44-.32-.65.12-.21.23-.31.35-.31Z"/>
      <path class="cls-1" d="M299.01.1c6.36,1.99,13.04,1.79,19.55,2.86,41.41,6.8,78.78,22.78,112.03,48.39,14.66,11.3,28.49,23.51,40.57,37.58,2.42,2.82,4.3,3.51,7.84,1.44,6.11-3.57,12.69-6.36,19.93-9.9,0,12.27,0,23.66,0,35.05,0,2.18-1.8,2.83-3.23,3.32-4.29,1.45-3.96,3.67-2.02,7.04,6.78,11.81,12.85,23.99,17.8,36.69,4.21,10.8,8.35,21.62,10.84,33.01.61,2.8-.05,3.73-2.49,4.8-5.91,2.6-11.72,5.43-17.4,8.49-2.47,1.33-3.01,1.15-3.79-1.66-6.29-22.73-15.13-44.43-26.49-65.13-6.8-12.39-6.61-12.49-18.98-6.1-1.87.97-3.76,1.91-6.42,3.26,0-10.04-.12-19.46.05-28.88.09-5.12-1.37-8.97-5.26-12.79-14.43-14.16-29.8-26.98-47.11-37.51-3.37-2.05-5.68-2.05-9.01-.35-21.67,11.1-43.44,22-65.18,32.96-1.47.74-2.96,1.42-5.22,2.51,0-5.88,0-11.25,0-16.63,0-3.5.58-7.12-.11-10.47-2.21-10.82,3.02-16.34,12.46-20.05,6.59-2.59,12.71-6.37,19.23-9.71-22.42-14.88-101.91-13.79-143.84,2.45-65.28,25.28-111.27,70.46-137.38,135.96,20.94-10.21,41.89-20.42,63.7-31.05,0,3.2,0,5.74,0,8.28,0,6.33-.77,12.78.17,18.97,1.57,10.21-2.47,16.18-11.75,19.57-2.03.74-3.89,1.57-6.14,1.57-14.64,0-29.31-.65-43.9,1-12.77,1.45-25.54,3-38.43,6.69.37-8.23,2.65-15.68,5.28-22.85C68.02,87.08,132.31,29.08,227.28,5.41c9.93-2.47,20.16-3.89,30.46-4.37,1.11-.05,2.19-.62,3.29-.95,12.66,0,25.32,0,37.99,0Z"/>
      <path class="cls-3" d="M416.99,569.94c-.09.32-.09.64-.03.96h-16.99c.05-.32.03-.63-.04-.95,5.69,0,11.37,0,17.06-.01Z"/>
      <path class="cls-1" d="M235.11,134.98c0-13.28.05-25.59-.04-37.91-.02-2.31.84-3.69,2.87-4.68,15.94-7.78,31.87-15.56,47.76-23.44,2.71-1.35,3.38-.71,3.35,2.17-.13,10.99-.09,21.98-.13,32.97,0,1.66.08,3.25-1.84,4.23-17.1,8.72-34.17,17.51-51.97,26.66Z"/>
      <path class="cls-1" d="M209.02,106.91c0,12.73,0,24.69,0,36.66,0,1.54-.09,2.86-1.8,3.71-17,8.44-33.96,16.95-51.21,25.57-.88-12.3-.74-24.1-.79-35.89-.01-2.53.78-4.34,3.25-5.56,16.55-8.18,32.93-16.74,50.54-24.5Z"/>
      <path class="cls-1" d="M368.21,175.67c0-13.15.03-25.26-.03-37.37-.01-2.13,1.42-2.83,2.91-3.56,15.19-7.39,30.39-14.75,45.57-22.14,3.07-1.49,4.32-1.13,4.23,2.79-.23,10.31-.04,20.64,0,30.96,0,2.21-.12,3.87-2.73,5.1-16.28,7.7-32.44,15.68-49.96,24.22Z"/>
      <path class="cls-1" d="M363.16,246c11.22.02,19.81,8.59,19.82,19.75,0,11.14-8.73,19.63-20.09,19.53-11.15-.09-18.57-8.54-19.02-20.48-.34-8.86,8.1-19.84,19.29-18.8Z"/>
      <path class="cls-1" d="M386.87,311.97c8.18-.01,15.06,6.69,15.1,14.72.04,8.39-6.51,15.27-14.53,15.25-8.52-.02-15.54-7.11-15.46-15.62.07-7.77,6.88-14.34,14.89-14.36Z"/>
      <path class="cls-1" d="M202.46,59.89c7.75.02,13.7,5.92,13.57,13.45-.13,7.54-5.85,13.29-13.26,13.33-7.23.04-13.69-6.7-13.72-14.32-.03-6.73,6.17-12.48,13.41-12.46Z"/>
      <path class="cls-2" d="M48.57,69.94c6.49,0,11.56,5.22,11.51,11.82-.05,6.21-5.71,11.47-12.15,11.29-5.98-.17-10.81-5.51-10.84-11.99-.02-6.27,4.99-11.13,11.48-11.12Z"/>
      <path class="cls-2" d="M422.95,351.01c5.28-.13,9.86,4.26,10.01,9.59.14,4.89-3.95,9.12-9.02,9.33-4.96.21-9.92-4.69-9.89-9.76.03-4.41,4.54-9.06,8.9-9.16Z"/>
      <path class="cls-4" d="M248.14,417.12c-10.46,0-19.08-8.73-19.11-19.38-.04-11.08,8.27-19.64,19.21-19.8,10.61-.15,19.79,9.16,19.77,20.07-.01,10.84-8.6,19.1-19.87,19.11Z"/>
      <path class="cls-1" d="M177.71,535.39c-1.89,1.18-3.38-.16-4.99-.84-23.87-10.09-41.87-27.07-56.61-47.97-24.45-34.69-43.29-72.03-53.39-113.45-3.98-16.31-6.15-32.86-5.65-49.7.2-6.6,2.07-7.76,8.75-6.83,12.4,1.73,24.19,5.32,35.65,10.26,4.15,1.79,5.61,3.77,4.96,8.99-2.68,21.52-1.56,43,2.24,64.42,5.07,28.59,14.61,55.5,28.41,80.96,10.58,19.52,23.47,37.31,39.83,52.45.5.46,1,.88.8,1.71Z"/>
      <path class="cls-1" d="M152.68,380.39c-1.4,27.57,3.83,52.37,13.6,76.23,11.49,28.07,27.77,53.09,49.52,74.36,4.73,4.63,10.04,8.66,15.11,12.94,1.34,1.13,3.81,1.98,2.81,4.03-.89,1.8-3.28.87-4.96.54-13.03-2.55-24.16-8.86-33.99-17.58-37.15-32.97-57.92-75.07-68.79-122.81-3.86-16.94-5.38-34-4.91-51.3.11-4.17.88-8.21,1.7-12.27.44-2.18,1.1-2.83,3.21-1.25,10.04,7.53,19.14,16.08,26.57,26.14,2.57,3.48-.26,8.34.14,10.96Z"/>
      <path class="cls-1" d="M107.73,499.36c-6.75-3.47-11.94-8.78-17.28-13.78-27.73-25.94-49.68-56.18-66.04-90.43-7.8-16.33-13.41-33.43-16.19-51.37-2.38-15.36,4.83-23.9,22.34-26.8,9.97-1.65,10.37-1.34,10.36,8.94-.01,33.68,9.09,65.29,22.09,95.94,11.49,27.09,26.07,52.46,43.76,76.01.35.47.64.99.96,1.48Z"/>
      <path class="cls-1" d="M169.7,391.73c5.28,9.84,10.39,19.26,15.39,28.72,13.7,25.9,27.23,51.87,45.06,75.32,15.6,20.51,33.52,38.49,55.02,52.81.8.53,1.94.61,1.77,1.97-.24,1.87-1.73,1.22-2.73,1.23-11.82.19-22.3-3.9-31.98-10.3-32.94-21.76-55.43-52.02-70.84-87.88-7.76-18.06-12.33-36.93-12.92-56.66-.04-1.43-.58-2.98,1.23-5.21Z"/>
      <path class="cls-2" d="M502.04,476.88c6.25.08,11.76,5.62,11.74,11.81-.01,6.54-5.71,12.08-12.17,11.84-5.83-.21-11.22-6.17-11.28-12.47-.06-5.75,5.72-11.27,11.71-11.19Z"/>
    </g>
  </g>
  <g id="MOVIE_DIC" data-name="MOVIE DIC">
    <text class="cls-5" transform="translate(77.78 660.8)"><tspan x="0" y="0">MOVIE DIC</tspan></text>
  </g>
</svg>