<?xml version="1.0" encoding="UTF-8"?>
<svg id="Layer_1" data-name="Layer 1" xmlns="http://www.w3.org/2000/svg" version="1.1" viewBox="0 0 546.3 513.9">
  <defs>
    <style>
      .cls-1 {
        fill: #42c7f2;
      }

      .cls-1, .cls-2, .cls-3 {
        stroke-width: 0px;
      }

      .cls-2 {
        fill: #41c7f2;
      }

      .cls-3 {
        fill: #fff;
      }
    </style>
  </defs>
  <g id="sJ9Gp2.tif">
    <g>
      <path class="cls-3" d="M.09,240.03C.09,161.34.11,82.66,0,3.97,0,.89.6.29,3.68.29c76.43.11,152.87.09,229.3.09-.46,2.58-2.65,1.91-4.22,2.08-28.01,3.02-54.64,10.75-79.68,23.62-43.44,22.33-76.86,55.02-100.7,97.57-8.98,16.03-15.68,32.92-20.07,50.74-1.35,5.49-1.27,5.51,4.04,4.33,20.29-4.5,40.86-6.08,61.59-5.29,6.63.25,12.34-1.46,17.75-5.06,2.25-1.5,3.26-3.26,3.24-5.92-.06-8.37.02-16.75-.04-25.13-.03-3.93-.44-4.13-4.22-2.34-15.17,7.17-30.22,14.56-45.22,22.06-2.15,1.07-4.8,3.71-6.84,1.73-2.2-2.13.21-5.04,1.26-7.41,9.77-22.23,22.79-42.28,39.38-60.13,23.48-25.27,51.37-43.83,83.66-55.68,18.64-6.84,38.03-10.23,57.96-11.38,21.77-1.25,42.98,1.43,64.02,6.46,2.61.62,6.67.53,6.93,3.66.23,2.81-3.73,3.38-6.04,4.6-5.69,3.01-11.29,6.2-17.09,9-2.89,1.39-4.24,3.46-4.21,6.72.08,8.37-.01,16.75.05,25.13.03,3.93.24,3.98,3.72,2.25,18.9-9.4,37.77-18.88,56.6-28.42,4.6-2.33,8.16-1.9,12.46.81,15.69,9.88,29.69,21.72,42.6,34.95,2.93,3.01,3.12,6.7,3.23,10.39.19,6.58.1,13.16.04,19.74-.03,2.77.83,3.63,3.41,2.15,2.21-1.27,4.64-2.1,6.98-3.09,4.69-1.97,5.6-1.75,8.44,2.65,2.92,4.52,5.52,9.26,7.91,14.08,7.5,15.18,13.91,30.8,18.63,47.08,1.42,4.89,1.62,4.93,6.07,2.79,3.51-1.69,6.87-3.72,10.53-5.04,3.32-1.2,3.68-3.21,2.95-6.31-2.84-12-7.54-23.31-12.26-34.64-3.52-8.44-7.88-16.46-12.28-24.44-1.93-3.5-2.36-6.39,1.66-8.68,1.88-1.07,2.37-2.94,2.38-5.01.01-7.48-.04-14.96.02-22.43.03-2.97-1.05-3.86-3.81-2.53-3.92,1.88-7.81,3.81-11.65,5.83-4.93,2.59-5.78,2.66-9.67-1.56-5.68-6.16-11.58-12.05-17.74-17.76-35.46-32.82-76.83-53.03-124.9-59.33-2.97-.39-5.95-.66-8.92-.98-.97-.1-2.18-.31-1.99-1.83,91.12,0,182.24.02,273.36-.09,3.08,0,3.69.6,3.68,3.68-.12,60.44-.09,120.88-.09,181.31-2.57-.02-1.57-2.9-3.16-3.84-1.4,1.18-1.75,3.02-2.64,4.52-5.97,10.1-14.9,15.03-26.54,15.82-7.78.53-15.46-1.34-23.28-.28-16.63,2.25-27.55,11.38-33.69,26.68-.78,1.94-1.28,3.99-2.18,5.89-.39.81-.83,1.65-1.85,1.77-1.31.15-1.87-.85-2.25-1.81-1.2-3.07-2.54-6.07-4.06-8.99-7.58-14.59-19.54-22.75-35.95-24.04-5.96-.47-11.93.66-17.91.86-13.88.45-23.29-6.2-30.25-17.4-.39-.63-.61-1.37-1.82-2.21-1.49,4.36-1.99,8.81-1.87,13.03.41,14.15,3.97,27.49,12.25,39.25,9.85,14,22.93,23.42,39.69,27.52,2.62.64,5.22,1.39,7.86,1.93,13.47,2.78,20.5,11.8,23.11,24.51,3.99,19.39-.27,37.49-10.27,54.24-10.17,17.02-24.3,29.3-44.34,33.01-21.04,3.9-39.91-1.73-57.27-13.91-21.55-15.13-35.7-36.37-49.24-58.14-10.84-17.43-21.91-34.71-35.85-49.84-16.99-18.44-37.17-32.47-60.86-41.05-20.39-7.39-41.43-11.64-63.14-12.99-23.54-1.46-47.02-1.56-70.23,3-13.75,2.7-27,7.06-37.21,17.55-4.45,4.57-7.97,9.67-9.94,15.81-.5,1.55-.51,3.7-2.93,3.91Z"/>
      <path class="cls-3" d="M545.91,206.82c0,100.94-.02,201.88.07,302.81,0,3.14-.34,4.27-3.99,4.26-179.32-.12-358.64-.11-537.96,0-3.59,0-4.02-1.06-4.02-4.24.09-79.7.07-159.41.07-239.11.95-1.93,2.46-3.3,4.24-4.5,14.23-9.6,30.26-11.81,46.85-10.81,19.25,1.16,37.41,6.56,54.45,15.58,14.14,7.49,26.64,17.12,37.95,28.44,18.86,18.87,32.93,41.02,44.79,64.67,12.64,25.19,26.17,49.8,43.89,71.89,20.46,25.5,43.92,47.45,73.86,61.56,16.67,7.85,34.16,12.61,52.73,13.61,17.07.92,33.73-.63,50.07-5.63,1.14-.35,2.28-.73,3.37-1.24.29-.13.5-.32.64-.58,0-.56-.44-.69-.84-.77-25.97-5.29-48.34-18.17-69.71-33.1-12.3-8.59-23.78-18.2-34.33-28.86-5.67-5.73-11.09-11.77-15.55-18.55-.85-1.3-2.44-2.85-.97-4.39,1.44-1.51,3.08-.1,4.45.69,24.02,13.77,48.98,25.96,71.45,42.34,1.92,1.4,3.68,1.58,5.79.37,13.18-7.53,25.39-16.34,36.73-26.46,12.36-11.03,23.25-23.35,32.58-36.93,11.67-16.99,20.68-35.37,26.32-55.29,4.99-17.62,7.75-35.58,8.61-53.9.29-6.26.84-12.52.74-18.79-.05-3.37,1.55-4.79,4.73-5.28,8.77-1.35,17.37-3.38,25.32-7.49,18.71-9.66,30.3-24.82,35.08-45.28.41-1.77-.36-4.44,2.58-5.02Z"/>
      <path class="cls-2" d="M545.91,206.82c-1.94,4.8-2.35,10.01-4.31,14.85-10.22,25.21-29.08,39.28-55.69,43.48-6.52,1.03-6.42.89-6.57,7.66-.61,28.98-3.68,57.57-14.34,84.86-7.93,20.3-18.84,38.84-32.82,55.63-16.52,19.85-35.94,36.17-58.34,49-1.94,1.11-3.56,2.3-5.97.46-14.64-11.17-30.73-20.02-46.78-28.93-9.64-5.35-19.24-10.77-29.04-16.26,1.46,9.04,28.29,35.9,54.37,53.63,21.38,14.54,43.89,26.69,70.72,31.45-5.81,3.99-11.64,5.29-17.29,6.46-44.67,9.19-85.23-.47-121.87-27.19-31.24-22.78-54.53-52.42-73.67-85.59-12.08-20.93-21.59-43.27-35.04-63.45-18.37-27.56-40.81-50.62-71.43-64.6-18.28-8.35-37.52-12.81-57.69-12-14.73.59-28.46,4.6-40.05,14.29v-30.52c2.82-6.82,5.45-13.65,10.65-19.29,9.59-10.39,22.05-15.18,35.21-18.29,13.05-3.08,26.4-4.44,39.84-4.62,16.3-.21,32.62-.36,48.79,1.87,35.88,4.96,69.29,15.84,97.19,40.3,13.73,12.03,25.09,25.95,35.18,40.98,9.56,14.23,18.42,28.93,28.11,43.08,11.65,17.01,25.27,32.33,43.76,42.19,24.52,13.08,49.23,14.09,72.43-2.78,15.38-11.18,24.41-27.12,28.51-45.65,1.87-8.44,2.52-16.95,1.11-25.68-2.73-16.88-10.62-25.15-26.08-27.9-13.57-2.42-25.56-8.28-35.42-17.85-12.73-12.37-20.13-27.31-21.6-45.31-.61-7.48.26-14.45,1.96-22.09,2.71,2.34,3.35,5.33,5.06,7.62,6.31,8.47,14.12,14.01,25.15,14.02,5.84,0,11.66-.8,17.44-.8,17.61,0,30.82,8.06,39.32,23.49,2.12,3.84,3.7,7.98,5.78,12.52,1.52-3.93,2.71-7.53,4.28-10.94,6.45-14.06,17.27-22.11,32.74-24.53,6.69-1.05,13.09.24,19.61.4,15.13.37,25.91-5.69,32.21-19.5.42-.91.96-1.77,1.47-2.72,2.51,1.74,1.31,4.91,3.12,6.73v21.54Z"/>
      <path class="cls-2" d="M268.95.38c5.99.89,12,1.71,17.98,2.68,29.21,4.71,56.46,14.66,81.6,30.31,17.08,10.63,32.5,23.31,46.79,37.41,3.4,3.36,6.56,6.96,9.75,10.53,1.44,1.61,2.65,1.75,4.63.68,5.25-2.85,10.69-5.35,16.03-8.03,2.29-1.15,3.14-.62,3.11,2.03-.1,8.97-.08,17.95,0,26.92.02,1.92-.67,3.21-2.42,3.82-4.52,1.55-3.83,4.13-1.88,7.46,8.55,14.59,15.27,30.01,20.8,45.97,1.75,5.06,3.01,10.26,4.46,15.4.86,3.07-.31,3.95-2.64,4.97-4.64,2.04-9.42,3.91-13.72,6.54-3.45,2.11-4.56,1.42-5.51-2.2-4.71-17.93-11.75-34.97-20.29-51.4-2.4-4.62-5.27-9.01-7.82-13.55-1.11-1.97-2.29-2.26-4.33-1.17-4.17,2.22-8.72,3.63-13.56,6.97,0-9.12-.06-17.27.02-25.41.05-5.09-1.46-8.98-5.35-12.83-12.81-12.69-26.68-23.9-42.01-33.39-2.66-1.64-4.71-1.77-7.4-.4-20.21,10.3-40.47,20.5-60.72,30.72-.78.39-1.59.7-3.12,1.36v-24.91c0-12.03.02-11.98,10.86-17.27,5.86-2.86,11.63-5.93,17.3-9.43-49.61-14.5-98.23-12.45-145.11,9.58-50.93,23.93-86.83,62.45-107.43,115.19,6.06-2.97,12.11-5.96,18.18-8.91,11.68-5.68,23.41-11.26,35.04-17.05,2.83-1.41,4.07-1.81,3.98,2.19-.22,9.57-.12,19.15-.03,28.72.02,2.15-.58,3.45-2.49,4.71-6.27,4.13-12.7,6.42-20.52,6.07-22.44-1-44.66,1.19-66.88,6.69-.23-5.46,1.53-10.4,2.98-15.28,8.55-28.74,22.72-54.57,41.59-77.79C105.39,45.71,149.35,17.93,202.91,5.51c9.13-2.12,18.39-3.52,27.74-4.24.87-.07,1.84.14,2.32-.9,11.99,0,23.98,0,35.97,0Z"/>
      <path class="cls-2" d="M211.42,120.7c0-11.22.05-22.52-.03-33.82-.02-2.56,1.87-3.29,3.52-4.11,11.21-5.61,22.46-11.13,33.71-16.66,2.8-1.38,5.67-2.63,8.46-4.03,2.22-1.12,2.91-.38,2.9,1.92-.05,10.16-.04,20.32-.02,30.48,0,1.48-.42,2.52-1.83,3.23-15.31,7.7-30.59,15.44-45.89,23.15-.1.05-.29-.05-.82-.16Z"/>
      <path class="cls-2" d="M140.45,155.5c-1.54-11.2-.69-22.09-.89-32.94-.04-2.2,1.26-3.5,3.16-4.43,14.2-6.9,28.4-13.81,42.57-20.78,2.29-1.12,2.77-.4,2.76,1.87-.07,10.02-.06,20.03,0,30.05,0,1.69-.49,2.81-2.04,3.58-15.09,7.48-30.17,14.99-45.56,22.65Z"/>
      <path class="cls-2" d="M378.64,117.54c0,4.63-.17,9.27.06,13.89.15,2.85-1.02,4.21-3.49,5.38-13.32,6.33-26.62,12.72-39.8,19.35-3.03,1.53-4.07.67-4.12-2.15-.16-9.86-.13-19.72-.22-29.57-.02-1.88,1.25-2.56,2.62-3.22,13.69-6.61,27.39-13.19,41.05-19.86,3.24-1.58,4.09-.65,3.91,2.74-.23,4.47-.06,8.96-.06,13.44.01,0,.03,0,.04,0Z"/>
      <path class="cls-2" d="M309.41,238.33c-1.05-8.77,7.75-17.3,16.99-17.4,8.69-.09,18.73,8.62,18.2,18.17-.55,9.9-7.65,17.2-17.89,17.25-10.33.05-17.29-7.21-17.29-18.02Z"/>
      <path class="cls-2" d="M348.06,280.42c7.61,0,13.6,6.05,13.51,13.61-.09,7.25-5.88,13.23-12.89,13.32-7.55.1-14.03-6.25-14.08-13.79-.05-7.21,6.03-13.14,13.46-13.14Z"/>
      <path class="cls-2" d="M182.26,54.13c7.01.04,12.17,5.19,12.06,12.05-.11,6.81-5.67,12.29-12.26,12.06-6.47-.23-12.12-6.44-12.01-13.2.1-6.04,5.59-10.94,12.21-10.91Z"/>
      <path class="cls-2" d="M33.36,72.81c.06-5.64,4.5-9.72,10.49-9.66,5.9.05,10.27,4.6,10.18,10.59-.08,5.72-4.87,10.18-10.83,10.11-5.59-.07-9.91-4.92-9.85-11.03Z"/>
      <path class="cls-1" d="M380.86,332.48c-4.17-.03-8.36-4.32-8.46-8.67-.1-4.18,4.08-8.42,8.23-8.38,4.73.05,8.75,4.06,8.81,8.78.06,4.59-3.8,8.31-8.58,8.27Z"/>
      <path class="cls-2" d="M160.46,480.68c-2.41,1.41-3.77.24-5.25-.39-20.86-8.84-36.85-23.52-49.84-41.71-23.35-32.7-41.05-68.05-49.97-107.42-3.1-13.67-4.61-27.56-4.03-41.62.18-4.43,2.17-6.1,6.23-5.44,10.75,1.74,21.25,4.35,31.3,8.63,6.94,2.96,7.24,2.88,6.47,10.9-3.24,34.1,2.23,66.91,14.27,98.8,8.69,23.02,20.42,44.36,36.25,63.24,4.36,5.2,8.79,10.46,14.57,14.99Z"/>
      <path class="cls-2" d="M207.59,493.15c-10.4-1.77-19.74-6.01-28.14-12.6-24.13-18.96-40.27-43.74-52.61-71.36-8.61-19.27-14.01-39.47-16.88-60.27-1.69-12.25-1.89-24.67-.16-37.01.67-4.77,1.51-5.22,5.27-2.2,8.06,6.48,15.4,13.7,21.96,21.7.79.96,1.19,1.8,1.03,3.19-3.18,28.23,2.36,55.01,13.75,80.78,10.22,23.13,24.08,43.82,42.15,61.57,4.55,4.47,9.81,8.21,14.71,12.32.89.74,2.08,1.46,1.68,2.9-.4,1.44-1.71.78-2.77.99Z"/>
      <path class="cls-2" d="M96.49,448.88c-8.06-5.66-15.26-12.3-22.14-19.26-21.26-21.5-38.56-45.84-51.76-73.05-7.24-14.92-12.56-30.52-15.12-46.91-2.21-14.12.45-19.79,19.24-24.59,9.46-2.42,10.21-1.51,10.18,8.34-.07,29.8,8.08,57.77,19.47,84.91,10.52,25.07,24.23,48.39,40.14,70.57Z"/>
      <path class="cls-2" d="M153,352.57c5.34,9.94,10.79,19.82,15.98,29.83,11.61,22.35,23.66,44.44,39.04,64.47,13.69,17.83,29.48,33.57,48.44,45.92.73.47,1.77.68,1.58,1.86-.24,1.56-1.55,1.13-2.49,1.15-10.54.25-19.9-3.43-28.49-9.08-28.43-18.7-48.26-44.53-62.26-75.18-6.34-13.88-10.65-28.39-12.5-43.49-.61-4.97-1.85-10.19-.62-15.29.44-.06.87-.12,1.31-.19Z"/>
      <path class="cls-2" d="M451.37,428.52c5.52-.04,10.66,4.81,10.85,10.25.21,5.88-4.97,11.11-10.99,11.09-4.8-.02-10.29-5.95-10.32-11.16-.03-5,5.25-10.14,10.46-10.19Z"/>
      <path class="cls-3" d="M223.02,374.71c-9.4-.03-17.03-7.91-17.02-17.58,0-9.73,7.99-17.62,17.68-17.47,9.3.14,17.43,8.59,17.39,18.06-.04,9.59-7.94,17.02-18.05,16.99Z"/>
    </g>
  </g>
</svg>