<?xml version="1.0" encoding="UTF-8"?>
<svg id="Layer_1" data-name="Layer 1" xmlns="http://www.w3.org/2000/svg" version="1.1" viewBox="0 0 546.3 513.9">
  <defs>
    <style>
      .cls-1 {
        fill: #fdfdfd;
      }

      .cls-1, .cls-2, .cls-3, .cls-4, .cls-5 {
        stroke-width: 0px;
      }

      .cls-2 {
        fill: #00d1fe;
      }

      .cls-3 {
        fill: #01d1fe;
      }

      .cls-4 {
        fill: #85e1f4;
      }

      .cls-5 {
        fill: #fefefe;
      }
    </style>
  </defs>
  <path class="cls-1" d="M546.28,263.13c0,24.52,0,49.03.02,73.55,0,1-.17,1.3-1.26,1.3-142.93-.03-285.86-.03-428.8-.03-.09-.14-.08-.27.04-.38,1.94-.44,3.95-.45,5.9-.83,1.99-.38,3.96-.78,6.09-1.79-2.87-.62-5.38-1.37-7.84-2.35-4.65-1.85-8.94-4.33-13.05-7.12-4.5-3.05-8.68-6.52-12.48-10.42-1.68-1.73-3.23-3.58-4.53-5.62-.24-.38-.62-.85-.22-1.25.34-.34.8,0,1.15.2,7.49,4.37,15.33,8.17,22.37,13.28.79.57,1.44.58,2.28.1,4.79-2.73,9.21-5.97,13.09-9.85,10.19-10.19,16.57-22.34,18.32-36.75.49-4,.83-8.01.84-12.04,0-1.75.09-1.87,1.81-2.19,2.8-.52,5.57-1.13,8.06-2.56,6.84-3.91,10.41-9.84,10.73-17.68.07-1.81.3-3.68-.58-5.57-.79,1.56-1.59,2.96-2.84,4.04-1.84,1.58-3.95,2.28-6.38,2.38-2.37.11-4.7-.43-7.08-.1-5.15.72-8.53,3.55-10.42,8.3-.21.52-.35,1.06-.57,1.57-.14.34-.27.75-.71.77-.46.02-.61-.38-.74-.72-.33-.87-.72-1.71-1.14-2.53-2.32-4.54-6.04-7.09-11.11-7.51-1.88-.16-3.79.18-5.69.24-4.31.14-7.2-1.96-9.34-5.44-.12-.2-.19-.42-.48-.66-.55,1.33-.67,2.72-.62,4.04.2,5.23,1.68,10,5.24,14.03,2.78,3.15,6.11,5.37,10.16,6.5,1.16.33,2.34.61,3.51.88,3.6.85,5.62,3.25,6.58,6.67,1.06,3.72.75,7.45-.21,11.13-1.45,5.52-4.37,10.21-9.05,13.48-7.31,5.1-15,4.7-22.62.59-4.83-2.6-8.53-6.48-11.85-10.77-4.07-5.26-7.24-11.1-11-16.57-5.59-8.14-12.45-14.84-21.5-19.05-5.43-2.52-11.19-3.97-17.1-4.84-6.73-.99-13.48-1.1-20.26-.62-4.33.31-8.58.9-12.67,2.43-3.45,1.29-6.34,3.26-8.31,6.44-.49.8-.81,1.66-1.14,2.53-.16.43-.15,1.06-.86,1.08,0-24.47,0-48.94-.02-73.41,0-.92.14-1.15,1.12-1.15,181.35.03,362.7.03,544.05,0,.99,0,1.12.24,1.12,1.16-.03,27.62-.02,55.25-.02,82.87-.56.42-1.22.38-1.87.38-2.65,0-5.29.03-7.94-.01-1.04-.02-1.63.34-1.94,1.36-1.51,5.01-6.08,7.1-10.31,7.26-1.39.05-2.77.08-4.16-.24-3.79-.89-6.56-2.99-7.98-6.66-1.78-4.57-1.77-9.13.15-13.67,1.49-3.54,4.23-5.6,7.92-6.33,3.2-.63,6.36-.45,9.37,1.04,2.38,1.18,4.03,2.99,4.86,5.46.42,1.25,1.09,1.63,2.35,1.59,2.46-.08,4.92,0,7.38-.03,1.4-.01,1.51-.18,1.21-1.57-1.21-5.55-4.44-9.48-9.76-11.43-7.7-2.83-15.57-2.89-23.38-.46-5.62,1.75-9.39,5.59-10.92,11.3-1.65,6.21-1.56,12.39,1.36,18.28,1.62,3.27,4.19,5.73,7.57,7.07,8.62,3.42,17.35,3.4,25.93-.04,5.17-2.07,8.29-6.1,9.39-11.61.1-.51-.11-1.27.75-1.42Z"/>
  <path class="cls-2" d="M.03,253.39c.94-2.39,1.97-4.69,3.87-6.55,2.9-2.83,6.5-4.24,10.31-5.07,7.51-1.65,15.13-1.71,22.79-1.23,6.07.38,11.99,1.45,17.77,3.28,11.46,3.63,20.17,10.89,26.86,20.67,3.29,4.8,6.28,9.8,9.57,14.6,3.69,5.38,7.98,10.22,13.82,13.43,10.38,5.7,22.58,3.2,28.78-8.31,2.19-4.06,3.34-8.37,3.07-12.99-.21-3.55-1.11-6.84-4.34-8.97-1.46-.96-3.18-1.18-4.82-1.58-8.94-2.17-15.34-8.93-16.68-17.91-.41-2.73-.48-5.53.59-8.3.68,1.07,1.23,2.14,1.96,3.07,2.24,2.85,5.26,3.89,8.84,3.72,1.84-.08,3.66-.48,5.54-.24,5.99.77,9.55,4.39,11.69,9.73.15.38.27.77.4,1.16.01.03.06.05.23.18.34-.9.68-1.76.98-2.63,1.83-5.29,7.38-9.07,13.77-8.36,3.25.36,6.59.53,9.48-1.67,1.34-1.01,2.27-2.29,3.03-3.73.23-.44.45-.88.73-1.42.7.96.84,2,.9,2.96.6,8.86-2.37,16.06-10.04,20.98-2.81,1.8-5.98,2.65-9.25,3.07-1.1.14-1.3.6-1.31,1.6-.11,7.4-.71,14.74-2.76,21.9-2.58,9.04-7.11,16.99-13.33,24.01-4.8,5.42-10.38,9.89-16.65,13.5-.62.35-1.1.65-1.84.08-3.81-2.95-7.99-5.34-12.18-7.69-3.55-2-7.09-4-10.64-6-.27-.15-.56-.28-.92-.46,3.29,7.21,22.89,24.01,38.79,26.65-4,2.01-8.32,2.67-12.77,2.81-1.45.27-2.92.05-4.38.12-8.79.17-16.52-2.99-23.74-7.66-8.11-5.26-14.45-12.29-20.02-20.07-3.93-5.49-7.02-11.46-10.07-17.45-3.09-6.05-6.51-11.87-10.94-17.05-7.42-8.68-16.48-14.61-27.95-16.39-4.92-.76-9.81-.68-14.51,1.25-1.17.48-2.22,1.16-3.27,1.85-.41.27-.75.74-1.35.57v-9.46Z"/>
  <path class="cls-5" d="M.03,262.85c5.09-4.1,10.97-4.89,17.26-4.24,11.26,1.17,20.39,6.41,28.07,14.47,6.26,6.58,10.58,14.42,14.6,22.45,5.15,10.29,11.5,19.74,19.96,27.65,7.29,6.82,15.61,11.81,25.54,13.8,1.99.4,4,.76,6.05.7.1.05.13.11.1.17-.03.06-.06.09-.09.09-36.76,0-73.52,0-110.28.02-.97,0-1.23-.15-1.23-1.19.04-24.64.03-49.29.03-73.93Z"/>
  <path class="cls-2" d="M546.28,263.13c-.23.93-.43,1.88-.69,2.8-1.61,5.8-5.51,9.49-11.09,11.32-7.29,2.39-14.72,2.47-22.06.24-7.42-2.26-11.86-8.13-12.42-15.93-.24-3.25-.21-6.47.53-9.67,1.41-6.11,4.98-10.47,10.93-12.48,8.17-2.77,16.45-2.7,24.54.38,5.73,2.18,8.86,6.63,9.93,12.59.16.88-.11,1.12-.98,1.1-3.11-.05-6.22-.04-9.34,0-.71,0-1.08-.16-1.27-.9-1.24-4.69-4.61-6.86-9.17-7.47-1.84-.25-3.71-.16-5.53.31-3.93,1.03-6.44,3.55-7.64,7.37-1.1,3.49-1.14,7.01-.13,10.54,1.36,4.74,4.51,7.45,9.38,8.08,2.41.32,4.82.15,7.12-.78,2.99-1.21,5.04-3.31,5.85-6.43.3-1.14.77-1.4,1.87-1.37,3.39.08,6.78.03,10.17.03v.28Z"/>
  <path class="cls-4" d="M111.51,337.95c.01-.09,0-.18-.01-.26,1.59,0,3.17,0,4.76,0-.02.09-.03.18,0,.27h-4.74Z"/>
  <path class="cls-2" d="M124.54,217.94c0-2.97,0-5.65,0-8.34,0-1.18-.18-2.18-1.2-3.11-2.67-2.43-5.19-5.04-8.14-7.15-1.85-1.31-3.78-2.5-5.64-3.8-.65-.45-1.19-.31-1.8,0-4.69,2.38-9.38,4.76-14.07,7.13-1.89.95-3.79,1.88-5.87,2.91,0-3.67,0-7.17,0-10.67,0-.7.6-.88,1.07-1.13,2.09-1.1,4.19-2.16,6.27-3.27.48-.25,1.03-.41,1.39-.88-10.57-3.85-28-4.66-43.27,2.11-16.62,7.37-28.35,19.51-35.43,36.7,6.22-3.03,12.06-5.87,18.13-8.82,0,3.69,0,7.18,0,10.68,0,.17-.05.43-.15.49-1.58.8-2.86,2.27-4.8,2.28-4.08.03-8.17-.17-12.24.3-3.16.36-6.32.71-9.41,1.53-.39.1-.77.19-1.3.31.19-2.37.88-4.5,1.61-6.61,5.99-17.26,16.98-30.46,32.65-39.78,7.97-4.74,16.6-7.82,25.8-9.06,16.29-2.19,31.59.83,45.68,9.36,6.41,3.88,12.15,8.63,17.1,14.28.94,1.07,1.66,1.49,3.08.63,1.55-.94,3.19-1.84,5.1-2.42,0,3.23-.02,6.33.01,9.42,0,.66-.39.96-.87,1.09-1.51.44-1.02,1.3-.52,2.18,2.64,4.57,4.77,9.37,6.48,14.36.55,1.61,1.02,3.25,1.43,4.91.18.72-.03.97-.66,1.24-1.74.74-3.48,1.49-5.1,2.49-.7.44-.69,0-.83-.5-1.46-5.1-3.27-10.06-5.67-14.81-1-1.97-2-3.95-3.22-5.8-.39-.59-.66-.84-1.4-.42-1.27.72-2.7,1.15-4.22,2.16Z"/>
  <path class="cls-2" d="M205.43,246.98c0,9.78-.02,19.56.03,29.33,0,1.25-.29,1.64-1.58,1.59-2.55-.11-5.11-.06-7.66-.02-.8.01-1.12-.14-1.12-1.05.03-12.37.03-24.75,0-37.12,0-.86.23-1.09,1.09-1.08,4.46.04,8.92.05,13.37,0,.96-.01,1.36.32,1.71,1.17,3.5,8.56,7.05,17.11,10.59,25.65.14.33.3.66.45,1,.54-.18.54-.65.68-1,3.54-8.55,7.09-17.09,10.59-25.65.35-.85.75-1.19,1.71-1.17,4.41.06,8.82.06,13.23,0,.97-.01,1.23.24,1.23,1.22-.03,12.28-.04,24.56,0,36.84,0,1.02-.33,1.21-1.26,1.19-2.6-.06-5.2-.08-7.8,0-1.06.03-1.3-.27-1.3-1.3.04-9.36.02-18.72.02-28.08v-1.6c-.45.15-.47.53-.59.82-3.8,9.59-7.63,19.17-11.37,28.78-.44,1.12-1,1.43-2.12,1.38-1.95-.08-3.9-.08-5.85,0-1.12.05-1.68-.26-2.12-1.38-3.65-9.4-7.39-18.76-11.11-28.14-.2-.5-.41-.98-.62-1.48-.08.03-.15.05-.23.08Z"/>
  <path class="cls-2" d="M278.08,237.53c5.13.01,9.05.41,12.81,1.71,7.71,2.65,11.78,8.2,12.59,16.17.32,3.14.19,6.29-.64,9.37-1.79,6.62-6.13,10.81-12.59,12.7-7.52,2.19-15.13,2.19-22.61-.21-7.62-2.45-12.17-8.59-12.63-16.56-.19-3.35-.1-6.67.94-9.89,2.33-7.18,7.65-10.86,14.74-12.42,2.82-.62,5.68-.88,7.39-.86Z"/>
  <path class="cls-2" d="M433.68,258.29c0-6.12.02-12.23-.02-18.35,0-1.01.2-1.33,1.28-1.32,7.98.05,15.97.02,23.95.03,2.52,0,5,.36,7.39,1.18,6.68,2.29,9.87,7.31,10.86,13.99.54,3.6.46,7.22-.37,10.77-1.89,8.15-7.55,12.97-16.01,13.19-8.72.23-17.45.05-26.18.1-1.09,0-.9-.63-.9-1.25,0-6.12,0-12.23,0-18.35Z"/>
  <path class="cls-2" d="M370.7,258.12c0-6.03.02-12.05-.02-18.08,0-1,.13-1.43,1.32-1.42,11.33.05,22.66.05,34,0,1.04,0,1.37.25,1.31,1.31-.09,1.57-.12,3.16,0,4.72.11,1.32-.43,1.49-1.58,1.49-7.62-.05-15.23.01-22.85-.06-1.32-.01-1.64.4-1.57,1.63.1,1.76.1,3.53,0,5.28-.06,1.15.37,1.37,1.43,1.37,7.25-.04,14.49,0,21.74-.05,1.17,0,1.69.22,1.58,1.51-.12,1.38-.13,2.79,0,4.17.13,1.31-.4,1.5-1.56,1.49-7.25-.05-14.49,0-21.74-.05-1.16,0-1.5.31-1.44,1.46.1,1.99.13,3.99,0,5.98-.09,1.36.44,1.57,1.64,1.56,7.71-.05,15.42,0,23.13-.05,1.15,0,1.53.28,1.46,1.45-.1,1.62-.09,3.25,0,4.86.06,1.02-.32,1.21-1.26,1.2-11.43-.03-22.85-.04-34.28.01-1.19,0-1.32-.42-1.32-1.42.04-6.12.02-12.24.02-18.36Z"/>
  <path class="cls-2" d="M350.08,238.65c-.88,2-1.7,3.85-2.52,5.7-4.76,10.74-9.53,21.47-14.25,32.22-.43.98-.92,1.37-2.04,1.33-2.97-.1-5.94-.05-8.91-.02-.68,0-1.06-.16-1.36-.84-5.58-12.65-11.2-25.28-16.8-37.92-.03-.08-.02-.18-.06-.47,1.89,0,3.76,0,5.63,0,1.58,0,3.16.07,4.73-.03.99-.06,1.33.35,1.65,1.2,3.39,9,6.82,17.98,10.24,26.97.18.47.38.93.67,1.63,1.6-4.2,3.12-8.18,4.63-12.17,2.09-5.49,4.2-10.97,6.24-16.47.33-.9.75-1.17,1.7-1.15,3.42.06,6.85.02,10.46.02Z"/>
  <path class="cls-2" d="M363.22,258.27c0,6.11-.03,12.22.03,18.34,0,1.07-.31,1.31-1.32,1.28-2.74-.07-5.47-.05-8.21-.01-.77,0-1.15-.08-1.15-1.02.03-12.41.03-24.82,0-37.23,0-.81.25-1.01,1.03-1,2.83.04,5.66.05,8.49,0,.92-.02,1.16.27,1.15,1.17-.04,6.16-.02,12.32-.02,18.47Z"/>
  <path class="cls-2" d="M494.2,258.41c0,6.02-.04,12.04.03,18.06.01,1.19-.33,1.46-1.47,1.43-2.69-.09-5.38-.05-8.07-.01-.77.01-1.15-.08-1.14-1.02.03-12.41.03-24.82,0-37.23,0-.81.26-1.01,1.03-1,2.83.04,5.66.05,8.49,0,.93-.02,1.16.27,1.15,1.17-.04,6.2-.02,12.41-.02,18.61Z"/>
  <path class="cls-2" d="M65.55,216.48c0-3.48.01-6.9,0-10.33,0-.63.19-1.04.77-1.32,4.44-2.16,8.89-4.33,13.31-6.53.9-.45.98-.08.97.7-.03,3.01-.03,6.02-.02,9.03,0,.61-.13,1.05-.72,1.35-4.57,2.32-9.14,4.65-13.71,6.98-.15.08-.35.08-.58.12Z"/>
  <path class="cls-2" d="M43.5,227.2c-.24-3.43-.21-6.71-.21-9.99,0-.62.12-1.13.79-1.47,4.64-2.33,9.26-4.69,14.2-6.89,0,3.6,0,7.04,0,10.49,0,.37-.18.59-.5.75-4.73,2.36-9.46,4.72-14.27,7.12Z"/>
  <path class="cls-2" d="M102.82,227.88c-.2-3.57-.2-6.98-.17-10.4,0-.53.41-.69.77-.87,4.27-2.08,8.55-4.15,12.83-6.22.63-.3,1.1-.4,1.08.64-.05,2.92-.03,5.84.02,8.75.01.8-.25,1.24-.98,1.58-4.46,2.11-8.9,4.27-13.55,6.51Z"/>
  <path class="cls-2" d="M101.17,247.55c3.22,0,5.61,2.37,5.6,5.56,0,3.02-2.4,5.35-5.53,5.37-3.11.02-5.35-2.34-5.34-5.63,0-3.13,2.16-5.3,5.27-5.3Z"/>
  <path class="cls-2" d="M107.93,265.9c2.27.02,4.16,1.92,4.14,4.17-.02,2.32-1.89,4.22-4.12,4.17-2.37-.05-4.3-2.06-4.24-4.42.06-2.16,1.98-3.94,4.22-3.92Z"/>
  <path class="cls-2" d="M56.4,195.77c2.17,0,3.84,1.61,3.83,3.7-.02,2.1-1.57,3.71-3.65,3.75-2.01.04-3.82-1.8-3.87-3.94-.04-1.87,1.68-3.51,3.69-3.51Z"/>
  <path class="cls-3" d="M143.24,315.14c-.06,1.79-1.54,3.23-3.32,3.23-1.66,0-3.26-1.75-3.22-3.53.03-1.6,1.67-3.1,3.33-3.05,1.73.05,3.26,1.65,3.21,3.35Z"/>
  <path class="cls-3" d="M13.58,198.57c1.8.01,3.21,1.49,3.17,3.32-.03,1.68-1.51,3.07-3.28,3.1-1.7.03-3.13-1.51-3.12-3.37,0-1.74,1.41-3.07,3.24-3.05Z"/>
  <path class="cls-3" d="M117.99,276.77c1.48.02,2.72,1.27,2.71,2.74,0,1.42-1.25,2.56-2.73,2.52-1.28-.04-2.61-1.49-2.54-2.79.07-1.26,1.33-2.49,2.56-2.47Z"/>
  <path class="cls-5" d="M63.85,289.72c0-3.06,2.36-5.45,5.4-5.46,2.97,0,5.48,2.58,5.47,5.63-.02,3-2.44,5.29-5.59,5.27-2.92-.01-5.28-2.45-5.28-5.44Z"/>
  <path class="cls-2" d="M49.7,328c-.64.35-1.03.07-1.45-.11-5.98-2.56-10.8-6.56-14.66-11.75-7.48-10.06-13.11-21.02-16.12-33.24-1.1-4.49-1.7-9.05-1.57-13.69.05-1.96.53-2.27,2.46-2.01,3.46.48,6.74,1.49,9.94,2.85,1.18.5,1.54,1.08,1.35,2.52-.68,5.24-.55,10.51.25,15.75,1.32,8.67,4.04,16.86,8.25,24.57,3.05,5.59,6.77,10.64,11.53,15.1Z"/>
  <path class="cls-2" d="M33.76,280.55c-.05-1.48-.03-3.28.3-5.06.16-.89.39-1.47,1.42-.64,2.57,2.08,4.94,4.34,7.02,6.9.25.31.31.61.26,1.01-1.1,10.4,1.48,20.02,6.33,29.14,3.86,7.26,8.81,13.61,15.42,18.61.34.26.94.53.67,1.06-.24.47-.84.25-1.26.17-3.68-.71-6.83-2.46-9.61-4.93-10.35-9.18-16.17-20.88-19.16-34.17-.87-3.88-1.46-7.78-1.37-12.09Z"/>
  <path class="cls-2" d="M30.03,318.04c-1.88-.96-3.33-2.44-4.82-3.83-7.73-7.22-13.85-15.63-18.41-25.16-2.18-4.54-3.74-9.3-4.51-14.29-.66-4.27,1.34-6.65,6.22-7.46,2.78-.46,2.89-.37,2.89,2.48,0,9.37,2.53,18.17,6.16,26.69,3.2,7.54,7.27,14.6,12.2,21.15.1.13.18.28.27.41Z"/>
  <path class="cls-2" d="M47.33,288.17c1.13,2.08,2.25,4.13,3.36,6.18,3.7,6.9,7.18,13.92,11.74,20.33,4.76,6.68,10.25,12.61,17.18,17.1.27.18.46.31.35.62-.12.36-.46.23-.71.24-3.29.05-6.22-1.07-8.92-2.86-9.09-6.01-15.35-14.31-19.64-24.19-2.22-5.11-3.54-10.43-3.73-16.01-.01-.43-.22-.93.36-1.4Z"/>
  <path class="cls-5" d="M279.26,245.02c7.95,0,13.07,5.18,13.07,13.24,0,8.06-5.11,13.25-13.06,13.25-7.94,0-13.06-5.18-13.06-13.24,0-8.06,5.11-13.25,13.05-13.25Z"/>
  <path class="cls-5" d="M444.32,258.3c0-3.62.03-7.23-.02-10.85-.01-.98.17-1.38,1.28-1.36,3.25.08,6.5.05,9.75.03,6.93-.04,10.61,3.42,11.09,9.95.2,2.76.04,5.47-.77,8.11-1.19,3.85-4.13,6.08-8.16,6.17-4.04.09-8.08.02-12.12.08-.91.01-1.07-.34-1.06-1.14.04-3.66.02-7.32.02-10.99Z"/>
</svg>